<svg width="48" height="48" viewBox="0 0 48 48" fill="none" xmlns="http://www.w3.org/2000/svg">
<g clip-path="url(#clip0_107_60)">
<path d="M40.6355 8.72088C37.523 7.29248 34.2387 6.27301 30.8645 5.68787C30.8339 5.68273 30.8025 5.68717 30.7746 5.7006C30.7467 5.71403 30.7236 5.73579 30.7085 5.76287C30.2855 6.51287 29.8175 7.49387 29.4905 8.26187C25.8533 7.7099 22.1537 7.7099 18.5165 8.26187C18.1517 7.40633 17.7391 6.57201 17.2805 5.76287C17.2651 5.73608 17.242 5.71458 17.2141 5.70119C17.1863 5.68781 17.155 5.68316 17.1245 5.68787C13.7495 6.26987 10.4645 7.28988 7.35351 8.72088C7.32689 8.73103 7.30462 8.75012 7.29051 8.77487C1.06851 18.0719 -0.638493 27.1409 0.198507 36.0959C0.201507 36.1379 0.228507 36.1799 0.261507 36.2069C3.88468 38.8907 7.93728 40.9398 12.2465 42.2669C12.2769 42.2765 12.3096 42.2761 12.3398 42.2659C12.37 42.2556 12.3962 42.236 12.4145 42.2099C13.3385 40.9499 14.1605 39.6209 14.8685 38.2229C14.8833 38.1941 14.8883 38.1613 14.8829 38.1294C14.8775 38.0975 14.8619 38.0682 14.8385 38.0459C14.823 38.0312 14.8046 38.02 14.7845 38.0129C13.492 37.5161 12.2402 36.9193 11.0405 36.2279C11.007 36.2089 10.9821 36.1777 10.9709 36.1409C10.9597 36.104 10.9632 36.0643 10.9805 36.0299C10.9907 36.0075 11.0061 35.988 11.0255 35.9729C11.2775 35.7839 11.5295 35.5859 11.7695 35.3879C11.7907 35.3708 11.8161 35.3599 11.8431 35.3562C11.87 35.3525 11.8975 35.3562 11.9225 35.3669C19.7795 38.9549 28.2845 38.9549 36.0455 35.3669C36.0714 35.3556 36.0999 35.3517 36.1279 35.3554C36.1559 35.3591 36.1824 35.3703 36.2045 35.3879C36.4445 35.5859 36.6965 35.7839 36.9485 35.9729C36.9689 35.9878 36.9853 36.0075 36.9962 36.0304C37.0072 36.0532 37.0123 36.0783 37.0111 36.1036C37.0099 36.1289 37.0024 36.1534 36.9894 36.1751C36.9764 36.1968 36.9582 36.2149 36.9365 36.2279C35.7396 36.9257 34.4862 37.5217 33.1895 38.0099C33.1688 38.0174 33.15 38.0293 33.1345 38.0449C33.1189 38.0604 33.107 38.0792 33.0995 38.0999C33.0926 38.1199 33.0898 38.1412 33.0913 38.1623C33.0929 38.1834 33.0987 38.2041 33.1085 38.2229C33.8285 39.6179 34.6535 40.9499 35.5595 42.2099C35.5778 42.236 35.604 42.2556 35.6342 42.2659C35.6644 42.2761 35.6971 42.2765 35.7275 42.2669C40.0439 40.944 44.1031 38.8946 47.7305 36.2069C47.7487 36.1943 47.7638 36.1778 47.7747 36.1586C47.7856 36.1394 47.792 36.1179 47.7935 36.0959C48.7955 25.7429 46.1165 16.7489 40.6955 8.77788C40.69 8.76471 40.6819 8.75283 40.6715 8.74302C40.6612 8.7332 40.6489 8.72566 40.6355 8.72088ZM16.0415 30.6419C13.6745 30.6419 11.7275 28.4699 11.7275 25.8059C11.7275 23.1389 13.6385 20.9669 16.0415 20.9669C18.4625 20.9669 20.3915 23.1569 20.3555 25.8059C20.3555 28.4699 18.4445 30.6419 16.0415 30.6419ZM31.9895 30.6419C29.6255 30.6419 27.6755 28.4699 27.6755 25.8059C27.6755 23.1389 29.5865 20.9669 31.9895 20.9669C34.4105 20.9669 36.3425 23.1569 36.3035 25.8059C36.3035 28.4699 34.4105 30.6419 31.9895 30.6419Z" fill="white"/>
</g>
<defs>
<clipPath id="clip0_107_60">
<rect width="48" height="48" fill="white"/>
</clipPath>
</defs>
</svg>
