<svg id="svg" version="1.1" xmlns="http://www.w3.org/2000/svg" xmlns:xlink="http://www.w3.org/1999/xlink" width="400" height="400" viewBox="0, 0, 400,400"><g id="svgg"><path id="path0" d="M147.868 107.732 L 96.670 158.931 101.430 163.697 L 106.191 168.463 101.255 173.394 L 96.319 178.324 101.493 183.493 L 106.666 188.661 102.201 193.132 L 97.737 197.603 149.195 249.062 L 200.654 300.521 251.920 249.261 L 303.185 198.000 297.992 192.797 L 292.800 187.595 297.457 182.943 L 302.114 178.292 297.524 173.680 C 294.999 171.144,292.902 168.972,292.862 168.854 C 292.823 168.736,294.888 166.545,297.452 163.986 L 302.113 159.333 250.724 107.933 C 222.459 79.663,199.274 56.533,199.200 56.533 C 199.126 56.533,176.027 79.573,147.868 107.732 M294.793 162.938 L 290.787 166.944 245.020 121.178 L 199.254 75.412 153.625 121.044 L 107.995 166.676 104.242 162.937 C 102.178 160.881,100.534 159.065,100.588 158.902 C 100.643 158.738,122.938 136.354,150.133 109.158 L 199.578 59.712 249.188 109.322 L 298.799 158.932 294.793 162.938 M241.821 121.661 C 265.093 144.934,285.211 165.061,286.529 166.388 L 288.924 168.802 285.197 172.536 L 281.471 176.270 240.869 135.669 L 200.267 95.067 159.267 136.031 L 118.267 176.995 114.023 172.742 L 109.779 168.488 154.423 123.844 C 178.977 99.290,199.166 79.233,199.287 79.274 C 199.409 79.314,218.549 98.388,241.821 121.661 M279.462 178.000 C 279.464 178.147,261.479 196.254,239.495 218.239 L 199.522 258.210 159.868 218.553 C 138.059 196.742,120.256 178.846,120.307 178.783 C 120.358 178.720,138.391 160.668,160.380 138.666 L 200.360 98.663 239.908 138.198 C 261.660 159.942,279.459 177.853,279.462 178.000 M154.992 169.867 L 154.969 170.667 156.551 170.667 L 158.133 170.667 158.133 184.000 L 158.133 197.333 156.533 197.333 C 154.889 197.333,154.702 197.486,155.095 198.512 C 155.239 198.887,156.484 198.933,166.389 198.933 L 177.521 198.933 179.172 197.188 L 180.822 195.443 180.787 191.024 L 180.751 186.606 179.288 185.143 L 177.824 183.679 178.446 182.994 C 178.787 182.616,179.457 181.956,179.933 181.526 L 180.800 180.745 180.800 176.598 L 180.800 172.451 179.139 170.759 L 177.478 169.067 166.246 169.067 L 155.014 169.067 154.992 169.867 M183.028 169.867 C 183.061 170.659,183.075 170.667,184.597 170.667 L 186.133 170.667 186.133 184.000 L 186.133 197.333 184.667 197.333 C 183.860 197.333,183.185 197.423,183.166 197.533 C 183.147 197.643,183.104 198.003,183.069 198.333 L 183.006 198.933 190.170 198.933 L 197.333 198.933 197.333 198.133 C 197.333 197.357,197.296 197.333,196.067 197.333 L 194.800 197.333 194.836 191.533 C 194.855 188.343,194.885 185.463,194.902 185.133 C 194.933 184.538,194.967 184.533,199.067 184.533 L 203.200 184.533 203.200 190.933 L 203.200 197.333 201.867 197.333 C 200.563 197.333,200.533 197.351,200.533 198.133 L 200.533 198.933 207.733 198.933 L 214.933 198.933 214.933 198.133 C 214.933 197.341,214.919 197.333,213.467 197.333 L 212.000 197.333 212.000 184.000 L 212.000 170.667 213.467 170.667 C 214.919 170.667,214.933 170.659,214.933 169.867 L 214.933 169.067 207.733 169.067 L 200.533 169.067 200.533 169.867 C 200.533 170.649,200.562 170.667,201.872 170.667 L 203.210 170.667 203.138 176.723 L 203.067 182.780 199.200 182.805 C 197.073 182.818,195.213 182.791,195.067 182.745 C 194.858 182.679,194.728 173.198,194.906 171.000 C 194.924 170.787,195.366 170.667,196.133 170.667 C 197.289 170.667,197.333 170.637,197.333 169.867 L 197.333 169.067 190.164 169.067 L 182.996 169.067 183.028 169.867 M216.346 169.800 C 216.437 170.491,216.530 170.538,217.955 170.613 L 219.467 170.693 219.467 184.013 L 219.467 197.333 217.867 197.333 L 216.267 197.333 216.267 198.133 L 216.267 198.933 228.009 198.933 L 239.752 198.933 241.609 197.020 L 243.467 195.106 243.467 183.996 L 243.467 172.885 241.587 170.976 L 239.708 169.067 227.978 169.067 L 216.248 169.067 216.346 169.800 M112.337 174.603 L 116.534 178.806 112.543 182.790 C 110.348 184.982,108.458 186.689,108.343 186.584 C 108.228 186.479,106.304 184.566,104.068 182.332 L 100.002 178.271 103.931 174.336 C 106.092 172.171,107.923 170.400,108.000 170.400 C 108.077 170.400,110.028 172.291,112.337 174.603 M172.000 176.667 C 172.000 179.967,171.910 182.679,171.800 182.693 C 171.690 182.708,170.550 182.742,169.267 182.769 L 166.933 182.817 166.896 181.075 C 166.876 180.117,166.846 177.384,166.830 175.001 L 166.800 170.668 169.400 170.667 L 172.000 170.667 172.000 176.667 M234.667 184.008 L 234.667 197.350 231.407 197.275 L 228.147 197.200 228.132 184.267 C 228.124 177.153,228.164 171.183,228.221 171.000 C 228.296 170.758,229.191 170.667,231.495 170.667 L 234.667 170.667 234.667 184.008 M294.840 174.687 C 296.724 176.594,298.236 178.272,298.198 178.416 C 298.106 178.766,291.269 185.600,291.010 185.600 C 290.767 185.600,283.467 178.347,283.467 178.106 C 283.467 177.585,290.794 170.707,291.088 170.951 C 291.267 171.099,292.955 172.780,294.840 174.687 M285.366 183.667 C 287.399 185.683,289.063 187.422,289.065 187.529 C 289.067 187.789,199.516 277.333,199.253 277.333 C 198.950 277.333,110.652 188.978,110.644 188.667 C 110.639 188.440,114.871 184.055,117.584 181.475 L 118.417 180.684 159.008 221.265 L 199.600 261.846 240.400 220.960 C 262.840 198.473,281.306 180.058,281.435 180.037 C 281.565 180.017,283.334 181.650,285.366 183.667 M172.000 190.933 L 172.000 197.333 169.467 197.333 C 167.242 197.333,166.930 197.276,166.905 196.867 C 166.890 196.610,166.860 193.730,166.839 190.467 L 166.800 184.533 169.400 184.533 L 172.000 184.533 172.000 190.933 M249.933 247.552 L 200.266 297.199 150.652 247.586 L 101.039 197.972 104.696 194.320 C 106.708 192.310,108.424 190.667,108.510 190.667 C 108.596 190.667,129.036 211.037,153.933 235.933 L 199.200 281.200 245.133 235.264 L 291.067 189.329 295.333 193.617 L 299.600 197.905 249.933 247.552 M127.943 317.328 C 120.941 318.581,117.153 327.791,120.965 334.297 C 126.375 343.532,139.988 340.335,139.997 329.827 L 140.000 326.988 135.000 327.027 L 130.000 327.067 129.951 329.000 L 129.902 330.933 132.439 330.933 L 134.976 330.933 134.793 331.763 C 134.041 335.187,128.839 335.979,126.577 333.015 C 121.769 326.710,128.809 318.071,134.217 323.639 L 135.192 324.643 135.771 323.988 C 136.090 323.628,136.831 322.829,137.417 322.214 L 138.484 321.094 137.807 320.207 C 136.140 318.021,131.554 316.682,127.943 317.328 M271.764 317.387 C 265.518 318.339,261.452 325.546,263.471 332.085 C 266.345 341.389,279.451 342.367,283.669 333.590 C 287.743 325.115,281.028 315.976,271.764 317.387 M94.797 328.333 L 94.801 339.067 100.401 339.067 L 106.000 339.067 107.287 338.310 C 111.198 336.012,111.209 330.093,107.307 328.197 L 106.132 327.627 106.883 326.813 C 108.840 324.693,108.772 320.852,106.746 319.075 C 105.364 317.863,104.023 317.600,99.215 317.600 L 94.792 317.600 94.797 328.333 M112.398 328.400 L 112.396 339.200 114.998 339.200 L 117.600 339.200 117.600 328.400 L 117.600 317.600 115.000 317.600 L 112.400 317.600 112.398 328.400 M141.974 328.400 L 141.973 339.200 144.586 339.200 L 147.200 339.200 147.200 334.933 L 147.200 330.667 150.533 330.667 L 153.867 330.667 153.867 334.933 L 153.867 339.200 156.400 339.200 L 158.933 339.200 158.933 328.400 L 158.933 317.600 156.400 317.600 L 153.867 317.600 153.867 321.867 L 153.867 326.133 150.533 326.133 L 147.200 326.133 147.200 321.867 L 147.200 317.600 144.588 317.600 L 141.976 317.600 141.974 328.400 M162.093 317.800 C 162.070 317.910,162.034 322.770,162.011 328.600 L 161.970 339.200 171.088 339.200 L 180.207 339.200 180.950 337.067 L 181.692 334.933 185.660 334.933 L 189.627 334.933 189.970 335.800 C 190.159 336.277,190.523 337.237,190.779 337.933 L 191.244 339.200 194.022 339.200 C 196.671 339.200,197.070 339.094,196.587 338.520 C 196.469 338.381,196.099 337.547,195.763 336.667 C 195.428 335.787,195.051 334.827,194.925 334.533 C 194.800 334.240,194.080 332.440,193.326 330.533 C 192.572 328.627,191.318 325.507,190.540 323.600 C 189.761 321.693,188.902 319.564,188.629 318.868 L 188.133 317.602 185.709 317.601 L 183.285 317.600 182.509 319.527 C 182.082 320.587,181.766 321.488,181.805 321.530 C 181.845 321.571,181.701 321.947,181.486 322.363 C 181.270 322.780,180.181 325.389,179.065 328.160 C 177.949 330.932,176.845 333.616,176.612 334.125 C 176.378 334.633,175.851 335.953,175.440 337.058 C 174.630 339.236,174.524 339.089,174.632 335.933 L 174.675 334.667 170.938 334.667 L 167.200 334.667 167.200 332.667 L 167.200 330.667 170.667 330.667 L 174.133 330.667 174.133 328.400 L 174.133 326.133 170.667 326.133 L 167.200 326.133 167.200 324.133 L 167.200 322.133 170.910 322.133 L 174.621 322.133 174.601 319.867 L 174.580 317.600 168.357 317.600 C 164.934 317.600,162.115 317.690,162.093 317.800 M197.440 328.379 L 197.435 339.200 201.718 339.197 C 206.344 339.194,207.670 338.951,209.551 337.764 C 216.930 333.106,216.410 322.461,208.615 318.621 L 206.814 317.733 202.129 317.646 L 197.445 317.558 197.440 328.379 M223.947 317.774 C 223.847 317.967,223.864 336.877,223.965 338.600 C 224.040 339.880,233.065 339.375,235.619 337.948 C 241.238 334.807,243.025 326.577,239.083 321.993 C 238.708 321.557,238.401 321.121,238.400 321.025 C 238.400 320.756,236.023 319.143,234.533 318.402 C 233.150 317.713,224.251 317.186,223.947 317.774 M246.655 325.133 C 244.998 329.277,243.140 333.867,242.527 335.333 C 240.722 339.646,240.573 339.200,243.813 339.200 L 246.595 339.200 247.140 337.667 C 247.439 336.823,247.764 335.860,247.862 335.526 C 248.039 334.925,248.078 334.920,252.085 334.993 L 256.129 335.067 256.909 337.133 L 257.688 339.200 260.444 339.200 C 261.960 339.200,263.200 339.144,263.200 339.075 C 263.200 339.006,262.900 338.293,262.533 337.492 C 262.167 336.690,261.867 335.955,261.867 335.857 C 261.867 335.690,261.701 335.289,260.698 333.026 C 260.461 332.491,260.267 331.969,260.267 331.867 C 260.267 331.764,260.092 331.302,259.880 330.840 C 259.667 330.378,258.754 328.140,257.851 325.867 C 256.949 323.593,255.998 321.253,255.739 320.667 C 255.479 320.080,255.123 319.150,254.946 318.600 L 254.625 317.600 252.146 317.600 L 249.668 317.600 246.655 325.133 M102.687 322.285 C 103.698 323.200,103.328 325.095,102.044 325.583 C 100.201 326.284,100.000 326.099,100.000 323.698 L 100.000 321.530 101.087 321.676 C 101.685 321.756,102.405 322.030,102.687 322.285 M206.379 323.054 C 209.080 324.758,209.988 328.662,208.400 331.734 C 207.976 332.554,206.072 334.291,205.537 334.346 C 205.352 334.365,204.630 334.460,203.933 334.558 L 202.667 334.736 202.667 328.398 L 202.667 322.059 203.982 322.215 C 204.705 322.301,205.784 322.678,206.379 323.054 M232.864 323.083 C 237.639 326.216,235.850 333.953,230.200 334.605 L 229.067 334.736 229.067 328.400 L 229.067 322.065 230.467 322.246 C 231.239 322.347,232.314 322.722,232.864 323.083 M276.759 322.942 C 279.072 324.646,279.925 328.634,278.598 331.533 C 276.441 336.245,269.784 335.486,268.667 330.402 C 267.406 324.662,272.599 319.876,276.759 322.942 M187.047 328.069 C 187.970 330.493,188.027 330.400,185.627 330.400 L 183.520 330.400 184.263 328.333 C 184.672 327.197,185.166 325.924,185.359 325.505 L 185.712 324.743 186.036 325.505 C 186.214 325.924,186.669 327.078,187.047 328.069 M253.082 327.067 C 254.468 330.593,254.519 330.447,251.930 330.345 L 249.928 330.267 251.006 327.475 L 252.084 324.683 252.478 325.608 C 252.695 326.117,252.967 326.773,253.082 327.067 M103.435 330.818 C 105.390 331.601,105.163 334.773,103.129 335.088 C 102.270 335.221,101.664 335.259,100.867 335.231 L 100.000 335.200 100.000 332.800 L 100.000 330.400 101.195 330.400 C 101.852 330.400,102.860 330.588,103.435 330.818 M100.267 353.467 C 100.267 356.963,100.328 357.600,100.667 357.600 C 100.986 357.600,101.067 357.207,101.067 355.659 C 101.067 353.274,101.478 352.533,102.806 352.533 C 104.009 352.533,104.267 353.070,104.267 355.582 C 104.267 357.141,104.352 357.600,104.643 357.600 C 105.372 357.600,105.070 352.863,104.301 352.240 C 103.613 351.683,102.386 351.579,101.582 352.009 C 101.101 352.267,101.067 352.186,101.067 350.809 C 101.067 349.675,100.974 349.333,100.667 349.333 C 100.328 349.333,100.267 349.970,100.267 353.467 M93.867 350.267 C 93.867 350.563,94.178 350.667,95.067 350.667 L 96.267 350.667 96.267 354.133 C 96.267 357.037,96.332 357.600,96.667 357.600 C 97.002 357.600,97.067 357.037,97.067 354.133 L 97.067 350.667 98.267 350.667 C 99.156 350.667,99.467 350.563,99.467 350.267 C 99.467 349.937,98.978 349.867,96.667 349.867 C 94.356 349.867,93.867 349.937,93.867 350.267 M115.467 353.756 C 115.467 356.748,115.543 357.619,115.800 357.533 C 116.019 357.460,116.123 356.905,116.104 355.911 L 116.075 354.400 117.771 354.400 C 119.100 354.400,119.467 354.314,119.467 354.000 C 119.467 353.687,119.104 353.600,117.800 353.600 L 116.133 353.600 116.093 352.133 L 116.054 350.667 117.893 350.667 C 119.351 350.667,119.733 350.584,119.733 350.267 C 119.733 349.944,119.319 349.867,117.600 349.867 L 115.467 349.867 115.467 353.756 M149.600 350.400 C 149.600 350.696,149.778 350.933,150.000 350.933 C 150.222 350.933,150.400 350.696,150.400 350.400 C 150.400 350.104,150.222 349.867,150.000 349.867 C 149.778 349.867,149.600 350.104,149.600 350.400 M127.200 350.803 C 127.200 351.024,126.960 351.411,126.667 351.662 C 126.033 352.205,125.982 352.533,126.533 352.533 C 126.847 352.533,126.938 352.920,126.954 354.333 C 126.988 357.314,127.219 357.803,128.577 357.760 C 129.682 357.725,129.941 357.067,128.851 357.067 C 127.868 357.067,127.733 356.742,127.733 354.378 L 127.733 352.533 128.533 352.533 C 129.067 352.533,129.333 352.400,129.333 352.133 C 129.333 351.867,129.067 351.733,128.533 351.733 C 127.858 351.733,127.733 351.630,127.733 351.067 C 127.733 350.700,127.613 350.400,127.467 350.400 C 127.320 350.400,127.200 350.581,127.200 350.803 M107.667 352.021 C 104.779 353.703,106.833 358.458,110.133 357.733 C 111.487 357.436,111.123 356.861,109.667 356.996 C 108.262 357.126,107.200 356.463,107.200 355.456 C 107.200 354.983,107.391 354.933,109.200 354.933 L 111.200 354.933 111.200 354.039 C 111.200 352.281,109.191 351.134,107.667 352.021 M120.533 354.248 C 120.533 357.071,120.728 357.462,122.276 357.753 C 122.923 357.874,123.403 357.795,123.868 357.490 C 124.234 357.251,124.533 357.177,124.533 357.327 C 124.533 357.477,124.714 357.600,124.935 357.600 C 125.272 357.600,125.328 357.126,125.283 354.667 C 125.223 351.428,124.533 350.141,124.533 353.268 C 124.533 356.021,124.021 357.054,122.653 357.063 C 121.534 357.069,121.333 356.617,121.333 354.080 C 121.333 352.172,121.259 351.733,120.933 351.733 C 120.606 351.733,120.533 352.190,120.533 354.248 M130.404 353.933 C 130.409 357.262,131.193 358.347,133.129 357.705 C 133.461 357.595,134.031 357.496,134.395 357.486 C 135.054 357.467,135.058 357.451,135.131 354.577 C 135.204 351.717,134.634 350.326,134.467 352.954 C 134.255 356.265,133.885 357.067,132.568 357.067 C 131.396 357.067,131.200 356.639,131.200 354.080 C 131.200 352.172,131.125 351.733,130.800 351.733 C 130.476 351.733,130.401 352.154,130.404 353.933 M136.800 354.667 C 136.800 357.096,136.869 357.600,137.200 357.600 C 137.519 357.600,137.600 357.207,137.600 355.659 C 137.600 353.354,138.024 352.533,139.215 352.533 C 139.735 352.533,140.000 352.398,140.000 352.133 C 140.000 351.636,138.661 351.588,138.153 352.067 C 137.871 352.333,137.776 352.333,137.678 352.067 C 137.190 350.736,136.800 351.892,136.800 354.667 M141.800 352.021 C 138.913 353.703,140.966 358.458,144.267 357.733 C 145.620 357.436,145.256 356.861,143.800 356.996 C 142.396 357.126,141.333 356.463,141.333 355.456 C 141.333 354.983,141.524 354.933,143.333 354.933 L 145.333 354.933 145.333 354.039 C 145.333 352.281,143.324 351.134,141.800 352.021 M149.600 354.667 C 149.600 357.096,149.669 357.600,150.000 357.600 C 150.331 357.600,150.400 357.096,150.400 354.667 C 150.400 352.237,150.331 351.733,150.000 351.733 C 149.669 351.733,149.600 352.237,149.600 354.667 M152.326 352.148 C 151.141 352.979,151.516 354.016,153.333 354.933 C 154.916 355.732,155.148 356.047,154.689 356.773 C 154.512 357.053,154.079 357.108,152.960 356.993 C 151.549 356.847,151.069 357.056,151.790 357.502 C 152.954 358.221,155.379 357.641,155.646 356.580 C 155.876 355.663,155.508 355.178,153.981 354.382 C 151.958 353.329,152.368 351.951,154.520 352.568 C 155.016 352.710,155.415 352.692,155.587 352.520 C 156.345 351.762,153.363 351.422,152.326 352.148 M159.733 354.667 C 159.733 357.096,159.802 357.600,160.133 357.600 C 160.452 357.600,160.533 357.207,160.533 355.659 C 160.533 353.274,160.945 352.533,162.272 352.533 C 163.476 352.533,163.733 353.070,163.733 355.582 C 163.733 357.169,163.816 357.600,164.121 357.600 C 164.740 357.600,164.522 352.991,163.869 352.269 C 163.344 351.689,162.303 351.581,161.217 351.993 C 160.773 352.162,160.533 352.162,160.533 351.993 C 160.533 351.850,160.353 351.733,160.133 351.733 C 159.802 351.733,159.733 352.237,159.733 354.667 M166.567 352.288 C 166.179 352.593,165.930 352.953,166.013 353.088 C 166.097 353.223,166.038 353.333,165.882 353.333 C 165.431 353.333,165.557 355.513,166.067 356.527 C 167.346 359.072,170.684 357.750,170.707 354.689 C 170.727 352.125,168.452 350.805,166.567 352.288 M171.531 352.067 C 171.749 352.662,172.513 355.303,172.808 356.483 C 173.255 358.265,173.841 357.889,174.668 355.291 L 175.360 353.118 176.035 355.292 C 176.691 357.404,177.527 358.263,177.761 357.067 C 177.804 356.847,178.143 355.595,178.515 354.284 C 178.887 352.974,179.136 351.847,179.069 351.780 C 178.717 351.428,178.150 352.503,177.710 354.358 L 177.216 356.442 176.462 354.088 C 175.578 351.327,175.207 351.166,174.567 353.267 C 173.924 355.375,173.383 356.548,173.355 355.895 C 173.302 354.653,172.230 351.733,171.827 351.733 C 171.597 351.733,171.464 351.883,171.531 352.067 M110.091 353.213 C 110.261 353.586,110.400 353.946,110.400 354.013 C 110.400 354.079,109.680 354.133,108.800 354.133 C 107.065 354.133,106.814 353.864,107.774 353.031 C 108.621 352.297,109.712 352.382,110.091 353.213 M144.224 353.213 C 144.394 353.586,144.533 353.946,144.533 354.013 C 144.533 354.079,143.813 354.133,142.933 354.133 C 141.198 354.133,140.947 353.864,141.907 353.031 C 142.754 352.297,143.846 352.382,144.224 353.213 M169.468 353.068 C 170.185 353.861,170.101 355.965,169.327 356.592 C 167.965 357.695,166.425 356.745,166.409 354.793 C 166.392 352.746,168.235 351.706,169.468 353.068 M180.000 357.200 C 180.000 357.603,180.152 357.867,180.384 357.867 C 180.889 357.867,181.108 357.485,180.906 356.957 C 180.646 356.281,180.000 356.454,180.000 357.200 " stroke="none" fill="#044cac" fill-rule="evenodd"></path><path id="path1" d="M193.987 80.600 L 192.933 81.733 194.067 80.679 C 195.121 79.699,195.323 79.467,195.121 79.467 C 195.077 79.467,194.567 79.977,193.987 80.600 M185.454 89.133 L 184.400 90.267 185.533 89.213 C 186.587 88.232,186.789 88.000,186.587 88.000 C 186.544 88.000,186.034 88.510,185.454 89.133 M176.921 97.667 L 175.867 98.800 177.000 97.746 C 178.054 96.766,178.256 96.533,178.054 96.533 C 178.011 96.533,177.501 97.043,176.921 97.667 M203.733 102.267 C 204.231 102.780,204.698 103.200,204.771 103.200 C 204.845 103.200,204.498 102.780,204.000 102.267 C 203.502 101.753,203.035 101.333,202.962 101.333 C 202.889 101.333,203.236 101.753,203.733 102.267 M207.467 106.000 C 208.707 107.247,209.782 108.267,209.855 108.267 C 209.928 108.267,208.974 107.247,207.733 106.000 C 206.493 104.753,205.418 103.733,205.345 103.733 C 205.272 103.733,206.226 104.753,207.467 106.000 M168.387 106.200 L 167.333 107.333 168.467 106.279 C 169.521 105.299,169.723 105.067,169.521 105.067 C 169.477 105.067,168.967 105.577,168.387 106.200 M212.267 110.800 C 212.764 111.313,213.231 111.733,213.305 111.733 C 213.378 111.733,213.031 111.313,212.533 110.800 C 212.036 110.287,211.569 109.867,211.495 109.867 C 211.422 109.867,211.769 110.287,212.267 110.800 M216.000 114.533 C 217.240 115.780,218.315 116.800,218.388 116.800 C 218.462 116.800,217.507 115.780,216.267 114.533 C 215.026 113.287,213.952 112.267,213.878 112.267 C 213.805 112.267,214.760 113.287,216.000 114.533 M159.854 114.733 L 158.800 115.867 159.933 114.813 C 160.987 113.832,161.189 113.600,160.987 113.600 C 160.944 113.600,160.434 114.110,159.854 114.733 M220.800 119.333 C 221.298 119.847,221.765 120.267,221.838 120.267 C 221.911 120.267,221.564 119.847,221.067 119.333 C 220.569 118.820,220.102 118.400,220.029 118.400 C 219.955 118.400,220.302 118.820,220.800 119.333 M224.533 123.067 C 225.774 124.313,226.848 125.333,226.922 125.333 C 226.995 125.333,226.040 124.313,224.800 123.067 C 223.560 121.820,222.485 120.800,222.412 120.800 C 222.338 120.800,223.293 121.820,224.533 123.067 M151.321 123.267 L 150.267 124.400 151.400 123.346 C 152.454 122.366,152.656 122.133,152.454 122.133 C 152.411 122.133,151.901 122.643,151.321 123.267 M229.333 127.867 C 229.831 128.380,230.298 128.800,230.371 128.800 C 230.445 128.800,230.098 128.380,229.600 127.867 C 229.102 127.353,228.635 126.933,228.562 126.933 C 228.489 126.933,228.836 127.353,229.333 127.867 M233.067 131.600 C 234.307 132.847,235.382 133.867,235.455 133.867 C 235.528 133.867,234.574 132.847,233.333 131.600 C 232.093 130.353,231.018 129.333,230.945 129.333 C 230.872 129.333,231.826 130.353,233.067 131.600 M142.787 131.800 L 141.733 132.933 142.867 131.879 C 143.921 130.899,144.123 130.667,143.921 130.667 C 143.877 130.667,143.367 131.177,142.787 131.800 M237.867 136.400 C 238.364 136.913,238.831 137.333,238.905 137.333 C 238.978 137.333,238.631 136.913,238.133 136.400 C 237.636 135.887,237.169 135.467,237.095 135.467 C 237.022 135.467,237.369 135.887,237.867 136.400 M241.600 140.133 C 242.840 141.380,243.915 142.400,243.988 142.400 C 244.062 142.400,243.107 141.380,241.867 140.133 C 240.626 138.887,239.552 137.867,239.478 137.867 C 239.405 137.867,240.360 138.887,241.600 140.133 M134.254 140.333 L 133.200 141.467 134.333 140.413 C 135.387 139.432,135.589 139.200,135.387 139.200 C 135.344 139.200,134.834 139.710,134.254 140.333 M246.400 144.933 C 246.898 145.447,247.365 145.867,247.438 145.867 C 247.511 145.867,247.164 145.447,246.667 144.933 C 246.169 144.420,245.702 144.000,245.629 144.000 C 245.555 144.000,245.902 144.420,246.400 144.933 M250.133 148.667 C 251.374 149.913,252.448 150.933,252.522 150.933 C 252.595 150.933,251.640 149.913,250.400 148.667 C 249.160 147.420,248.085 146.400,248.012 146.400 C 247.938 146.400,248.893 147.420,250.133 148.667 M125.721 148.867 L 124.667 150.000 125.800 148.946 C 126.854 147.966,127.056 147.733,126.854 147.733 C 126.811 147.733,126.301 148.243,125.721 148.867 M254.933 153.467 C 255.431 153.980,255.898 154.400,255.971 154.400 C 256.045 154.400,255.698 153.980,255.200 153.467 C 254.702 152.953,254.235 152.533,254.162 152.533 C 254.089 152.533,254.436 152.953,254.933 153.467 M258.667 157.200 C 259.907 158.447,260.982 159.467,261.055 159.467 C 261.128 159.467,260.174 158.447,258.933 157.200 C 257.693 155.953,256.618 154.933,256.545 154.933 C 256.472 154.933,257.426 155.953,258.667 157.200 M117.187 157.400 L 116.133 158.533 117.267 157.479 C 118.321 156.499,118.523 156.267,118.321 156.267 C 118.277 156.267,117.767 156.777,117.187 157.400 M263.467 162.000 C 263.964 162.513,264.431 162.933,264.505 162.933 C 264.578 162.933,264.231 162.513,263.733 162.000 C 263.236 161.487,262.769 161.067,262.695 161.067 C 262.622 161.067,262.969 161.487,263.467 162.000 M267.200 165.733 C 268.440 166.980,269.515 168.000,269.588 168.000 C 269.662 168.000,268.707 166.980,267.467 165.733 C 266.226 164.487,265.152 163.467,265.078 163.467 C 265.005 163.467,265.960 164.487,267.200 165.733 M108.737 165.741 C 108.189 166.250,107.836 166.667,107.952 166.667 C 108.067 166.667,108.569 166.247,109.067 165.733 C 110.228 164.536,110.029 164.540,108.737 165.741 M272.000 170.533 C 272.498 171.047,272.965 171.467,273.038 171.467 C 273.111 171.467,272.764 171.047,272.267 170.533 C 271.769 170.020,271.302 169.600,271.229 169.600 C 271.155 169.600,271.502 170.020,272.000 170.533 M275.733 174.267 C 276.974 175.513,278.048 176.533,278.122 176.533 C 278.195 176.533,277.240 175.513,276.000 174.267 C 274.760 173.020,273.685 172.000,273.612 172.000 C 273.538 172.000,274.493 173.020,275.733 174.267 M100.121 174.467 L 99.067 175.600 100.200 174.546 C 101.254 173.566,101.456 173.333,101.254 173.333 C 101.211 173.333,100.701 173.843,100.121 174.467 M284.267 182.800 C 285.507 184.047,286.582 185.067,286.655 185.067 C 286.728 185.067,285.774 184.047,284.533 182.800 C 283.293 181.553,282.218 180.533,282.145 180.533 C 282.072 180.533,283.026 181.553,284.267 182.800 M292.933 191.467 C 294.100 192.640,295.114 193.600,295.187 193.600 C 295.261 193.600,294.366 192.640,293.200 191.467 C 292.034 190.293,291.019 189.333,290.946 189.333 C 290.873 189.333,291.767 190.293,292.933 191.467 M297.600 196.133 C 298.098 196.647,298.565 197.067,298.638 197.067 C 298.711 197.067,298.364 196.647,297.867 196.133 C 297.369 195.620,296.902 195.200,296.829 195.200 C 296.755 195.200,297.102 195.620,297.600 196.133 " stroke="none" fill="#044cb4" fill-rule="evenodd"></path><path id="path2" d="" stroke="none" fill="#084cac" fill-rule="evenodd"></path><path id="path3" d="" stroke="none" fill="#084cac" fill-rule="evenodd"></path><path id="path4" d="" stroke="none" fill="#084cac" fill-rule="evenodd"></path></g></svg>