<svg width="32" height="32" xmlns="http://www.w3.org/2000/svg" version="1.1">

 <g>
  <title>Layer 1</title>
  <path fill-rule="evenodd" fill="#084cac" id="path1"/>
  <path fill-rule="evenodd" fill="#084cac" id="path2"/>
  <path fill-rule="evenodd" fill="#084cac" id="path3"/>
  <path fill-rule="evenodd" fill="#084cac" id="path4"/>
  <path stroke="null" fill-rule="evenodd" fill="#044cac" d="m9.24736,6.74584l-6.69704,6.69704l0.61769,0.61807l0.61778,0.61807l-0.64285,0.64323l-0.64294,0.64323l0.68078,0.68106l0.68069,0.68106l-0.58619,0.58657l-0.58619,0.58666l6.72854,6.72854l6.72863,6.72854l6.70962,-6.70971l6.70962,-6.70962l-0.67473,-0.67501l-0.67463,-0.67501l0.59281,-0.59243c0.32606,-0.32578 0.59281,-0.60369 0.59281,-0.61759c0,-0.01391 -0.27517,-0.30061 -0.61154,-0.63717l-0.61154,-0.61182l0.61778,-0.61816l0.61769,-0.61807l-6.72229,-6.72229c-3.69723,-3.69723 -6.72787,-6.7222 -6.73487,-6.7222c-0.00691,0 -3.02629,3.01361 -6.70962,6.69704m13.29579,0.24897c3.53633,3.53595 6.42972,6.43625 6.42972,6.44514c0,0.00889 -0.2327,0.24868 -0.51714,0.53293l-0.51723,0.51676l-5.99072,-5.99072l-5.99081,-5.99072l-5.96546,5.96546l-5.96556,5.96546l-0.50465,-0.50418l-0.50474,-0.50427l6.48837,-6.48837l6.48827,-6.48837l0.06016,0.056c0.03301,0.03074 2.95345,2.94901 6.48979,6.48487m-0.70887,1.8699l5.86472,5.86472l-0.48564,0.48554l-0.48554,0.48554l-5.30975,-5.30965l-5.30975,-5.30975l-5.36016,5.36016l-5.36016,5.36016l-0.56131,-0.56122l-0.56122,-0.56122l5.83946,-5.83946c3.21169,-3.21169 5.84514,-5.83946 5.85204,-5.83946c0.007,0 2.6518,2.63912 5.8773,5.86463m-0.52962,1.89194l5.18356,5.18366l-5.24032,5.24041l-5.24041,5.24041l-5.18999,-5.18999l-5.1899,-5.18999l5.23407,-5.23407c2.87873,-2.87873 5.23975,-5.23407 5.24665,-5.23407c0.007,0 2.34532,2.33264 5.19633,5.18366m-10.29164,3.27214l0,0.18218l-0.15835,-0.15693l-0.15835,-0.15693l-1.04666,0l-1.04666,0l-0.23279,0.23374l-0.23279,0.23383l0,0.3779l0.00009,0.3779l1.14542,1.34955l1.14532,1.34945l-0.81037,0.00672l-0.81037,0.00662l-0.23421,-0.23317l-0.23412,-0.23317l0,-0.28425l0,-0.28434l-0.12609,0l-0.12619,0l0,0.66848l0,0.66848l0.12619,0l0.12609,0l0,-0.19486l0,-0.19477l0.17093,0.16951l0.17083,0.1696l1.10976,0l1.10976,0l0.24547,-0.24632l0.24547,-0.24641l0,-0.36777l0,-0.36787l-1.1597,-1.36591l-1.15961,-1.36591l0.73763,0l0.73763,0l0.23279,0.23374l0.23289,0.23383l0,0.2833l0,0.2833l0.13867,0l0.13877,0l0,-0.65581l0,-0.6559l-0.13877,0l-0.13867,0l0,0.18218m0.70623,-0.01816l0,0.11351l0.21444,0l0.21444,0l0,1.85401l0,1.85401l-0.21444,0l-0.21444,0l0,0.12609l0,0.12609l1.54554,0l1.54545,0l0.24547,-0.24632l0.24547,-0.24641l0,-0.61816l0,-0.61807l-0.21444,-0.21331l-0.21444,-0.2134l0.21444,-0.21539l0.21444,-0.21548l0,-0.55488l0,-0.55488l-0.24641,-0.24547l-0.24641,-0.24547l-1.5445,0l-1.5446,0l0,0.11351m3.90988,0l0,0.11351l0.21435,0l0.21444,0l0,1.85401l0,1.85401l-0.21444,0l-0.21435,0l0,0.12609l0,0.12609l1.00892,0l1.00902,0l0,-0.12609l0,-0.12609l-0.18918,0l-0.18918,0l0,-0.8955l0,-0.8955l0.59281,0l0.59272,0l0,0.8955l0,0.8955l-0.18918,0l-0.18918,0l0,0.12609l0,0.12609l1.00902,0l1.00902,0l0,-0.12609l0,-0.12609l-0.21444,0l-0.21444,0l0,-1.85401l0,-1.85401l0.21444,0l0.21444,0l0,-0.11351l0,-0.11351l-1.00902,0l-1.00902,0l0,0.11351l0,0.11351l0.18918,0l0.18918,0l0,0.84499l0,0.84499l-0.59272,0l-0.59281,0l0,-0.84499l0,-0.84499l0.18918,0l0.18918,0l0,-0.11351l0,-0.11351l-1.00902,0l-1.00892,0l0,0.11351m4.64126,0l0,0.11351l0.20186,0l0.20177,0l0,1.85401l0,1.85401l-0.20177,0l-0.20186,0l0,0.12609l0,0.12609l1.60854,0l1.60845,0l0.27082,-0.27157l0.27072,-0.27157l0,-1.56389l0,-1.56399l-0.25899,-0.25814l-0.25899,-0.25805l-1.62027,0l-1.62027,0l0,0.11351m-6.18,0.9585l0,0.84499l-0.36579,0l-0.36569,0l0,-0.84499l0,-0.84499l0.36569,0l0.36579,0l0,0.84499m8.72774,1.00902l0,1.85401l-0.45404,0l-0.45404,0l0,-1.85401l0,-1.85401l0.45404,0l0.45404,0l0,1.85401m-18.22471,-0.49188l0.55459,0.55507l-0.52328,0.52328l-0.52328,0.52319l-0.56112,-0.56103l-0.56103,-0.56112l0.51666,-0.51714c0.28425,-0.28453 0.52262,-0.51723 0.52981,-0.51723c0.00719,0 0.26259,0.24972 0.56765,0.55497m23.85636,-0.00605l0.49793,0.49841l-0.48583,0.48535l-0.48583,0.48526l-0.50399,-0.50446l-0.50408,-0.50446l0.47883,-0.4793c0.26334,-0.26363 0.48469,-0.4793 0.49188,-0.4793c0.00719,0 0.23714,0.22428 0.51108,0.4985m-14.35939,1.45644l0,0.8955l-0.36579,0l-0.36569,0l0,-0.8955l0,-0.8955l0.36569,0l0.36579,0l0,0.8955m13.14842,-0.24585l0.49784,0.49831l-5.88354,5.88354l-5.88354,5.88354l-5.81421,-5.8143l-5.81421,-5.81421l0.52338,-0.52338l0.52347,-0.52338l5.30975,5.30965l5.30975,5.30975l5.35392,-5.35392c2.94466,-2.94466 5.35969,-5.35392 5.36669,-5.35392c0.00709,0 0.23695,0.22428 0.5107,0.49831m-4.64779,8.34294l-6.49527,6.49537l-6.48893,-6.48903l-6.48903,-6.48893l0.49188,-0.49188l0.49188,-0.49188l5.92148,5.92138c3.25672,3.25681 5.93273,5.92148 5.94664,5.92148c0.01391,0 2.72104,-2.69588 6.01597,-5.99081l5.99081,-5.99081l0.55497,0.55488l0.55488,0.55497l-6.49527,6.49527" id="path0"/>
 </g>
</svg>