<svg width="32" height="32" xmlns="http://www.w3.org/2000/svg" version="1.1">

 <g>
  <title>Layer 1</title>
  <path fill-rule="evenodd" fill="#084cac" id="path1"/>
  <path transform="translate(0 -0.249999) translate(0.125 0)" stroke="null" fill-rule="evenodd" fill="#044cac" d="m9.44102,7.39294c-4.22789,4.22798 -6.39285,6.40912 -6.39285,6.44084c0,0.03055 0.20851,0.25668 0.5722,0.62064l0.57229,0.57256l-0.59633,0.59669c-0.32799,0.32817 -0.59633,0.61287 -0.59633,0.63248c0,0.0197 0.28461,0.32058 0.63248,0.66863l0.63248,0.63284l-0.53613,0.5365c-0.33983,0.3401 -0.53604,0.55403 -0.53604,0.58449c0,0.0667 12.81553,12.88196 12.88223,12.88196c0.05694,0 12.85801,-12.78895 12.85801,-12.84589c0,-0.01979 -0.28199,-0.31814 -0.6266,-0.66294l-0.6267,-0.62697l0.55439,-0.55403c0.4294,-0.42903 0.5543,-0.56759 0.5543,-0.61458c0,-0.047 -0.12735,-0.18781 -0.56641,-0.6266l-0.56632,-0.56596l0.56632,-0.56677c0.36007,-0.36035 0.56641,-0.58431 0.56641,-0.61486c0,-0.07755 -12.81661,-12.88196 -12.89425,-12.88196c-0.04808,0 -1.35489,1.29469 -6.45313,6.39294m12.67119,0.29509l6.15777,6.15777l-0.45768,0.45814l-0.45768,0.45814l-5.70009,-5.7c-3.78096,-3.78096 -5.71636,-5.70009 -5.74826,-5.70009c-0.03199,0 -1.96125,1.91298 -5.73009,5.68183l-5.68183,5.68183l-0.43988,-0.43988l-0.43979,-0.43979l6.15777,-6.15786c3.38681,-3.38681 6.16329,-6.15786 6.16997,-6.15786c0.0066,0 2.78307,2.77096 6.16979,6.15777m-0.63863,1.81971l5.56741,5.56741l-0.42786,0.42777l-0.42777,0.42777l-5.05523,-5.05523c-2.78036,-2.78036 -5.07149,-5.05514 -5.09138,-5.05514c-0.01979,0 -2.33262,2.29647 -5.13955,5.1034l-5.1034,5.1034l-0.50016,-0.50007l-0.50007,-0.50007l5.54328,-5.54328c3.04879,-3.04879 5.5487,-5.54328 5.5553,-5.54328c0.00669,0 2.51745,2.50533 5.57943,5.56732m-0.50604,1.80769l4.91658,4.91667l-4.97081,4.9709l-4.9709,4.9709l-4.92273,-4.92273l-4.92264,-4.92273l4.96485,-4.96485c2.73065,-2.73065 4.97027,-4.96485 4.97687,-4.96485c0.00669,0 2.22461,2.2125 4.92878,4.91667m-11.54668,2.68411c-0.00696,0.01817 -0.00931,0.09137 -0.00524,0.16268l0.00732,0.1297l0.21095,0.00696l0.21086,0.00696l0,1.90214l0,1.90214l-0.21086,0.00696l-0.21095,0.00696l-0.00732,0.14235c-0.00506,0.09761 0.00253,0.14868 0.02413,0.16232c0.01726,0.01103 0.76245,0.02015 1.65585,0.02034l1.6244,0.00036l0.26156,-0.25767l0.26147,-0.25776l0,-0.68879l0,-0.68888l-0.19278,-0.1917c-0.10611,-0.10538 -0.19287,-0.20299 -0.19287,-0.21691c0,-0.01383 0.08676,-0.11144 0.19287,-0.21691l0.19278,-0.19161l0,-0.62769l0,-0.6276l-0.25948,-0.25867l-0.25948,-0.25867l-1.64528,0c-1.37034,0 -1.64736,0.00551 -1.65793,0.03299m4.0972,0c-0.00696,0.01817 -0.00931,0.09137 -0.00524,0.16268l0.00741,0.1297l0.21086,0.00696l0.21086,0.00696l0,1.90214l0,1.90214l-0.21086,0.00696l-0.21086,0.00696l-0.00741,0.12852c-0.01202,0.21022 -0.08532,0.19685 1.08085,0.19685c1.20341,0 1.1077,0.01582 1.1077,-0.18338l0,-0.15401l-0.19278,0l-0.19287,0l0,-0.9038l0,-0.9038l0.56641,0l0.56641,0l0,0.9038l0,0.9038l-0.18193,0l-0.18184,0l0.00714,0.16268l0.00714,0.16268l1.07254,0l1.07245,0l0.00714,-0.16268l0.00714,-0.16268l-0.218,0l-0.218,0l0,-1.90404l0,-1.90404l0.21691,0l0.21691,0l0,-0.16865l0,-0.16874l-1.08456,0l-1.08456,0l0,0.16874l0,0.16865l0.18076,0l0.18076,0l0,0.8315l0,0.8315l-0.56641,0l-0.56641,0l0,-0.83041l0,-0.8305l0.18682,-0.00705l0.18682,-0.00705l0.00714,-0.16268l0.00705,-0.16268l-1.08637,0c-0.89738,0 -1.08863,0.00578 -1.09911,0.03299m4.85052,-0.0169c-0.02006,0.02006 -0.02115,0.23182 -0.00145,0.28325c0.01175,0.03055 0.05468,0.03805 0.21691,0.03805l0.20227,0l0,1.90313l0,1.90304l-0.21086,0.00696l-0.21086,0.00696l-0.00741,0.12852c-0.0122,0.21402 -0.16467,0.19685 1.74949,0.19685l1.70005,0l0.29744,-0.29401l0.29735,-0.29401l0,-1.66462l0,-1.66462l-0.28352,-0.2828l-0.28352,-0.2828l-1.7249,0c-0.94872,0 -1.73213,0.00723 -1.74099,0.01609m-6.47519,1.1528l0,0.8315l-0.33748,0l-0.33739,0l0,-0.8315l0,-0.8315l0.33739,0l0.33748,0l0,0.8315m9.13435,1.07254l0,1.90404l-0.43382,0l-0.43382,0l0,-1.90404l0,-1.90404l0.43382,0l0.43382,0l0,1.90404m-16.02727,-0.37354l0.49366,0.4942l-0.46374,0.46383l-0.46383,0.46374l-0.49998,-0.49989l-0.49989,-0.49998l0.4575,-0.45796c0.25162,-0.25198 0.4632,-0.45805 0.47007,-0.45805c0.00687,0 0.23463,0.22233 0.50622,0.49411m22.78779,-0.01202l0.43346,0.43391l-0.42768,0.42768l-0.42759,0.42759l-0.4397,-0.4397l-0.4397,-0.43961l0.42135,-0.42189c0.23173,-0.23201 0.42696,-0.42189 0.43391,-0.42189c0.00687,0 0.2076,0.19531 0.44594,0.43391m-15.89486,1.3858l0,0.9038l-0.33748,0l-0.33739,0l0,-0.9038l0,-0.9038l0.33739,0l0.33748,0l0,0.9038m14.73809,-0.22884l0.43337,0.43391l-5.5853,5.5854l-5.5854,5.5853l-5.51309,-5.51309l-5.51318,-5.51318l0.46392,-0.46392l0.46401,-0.46392l5.05523,5.05523c2.78036,2.78036 5.07149,5.05514 5.09138,5.05514c0.01988,0 2.33,-2.29385 5.13359,-5.09743c2.8035,-2.80359 5.10295,-5.09743 5.10973,-5.09743c0.00678,0 0.20733,0.19531 0.44575,0.434m-4.4288,7.89912l-6.16392,6.16383l-6.16383,-6.16383l-6.16392,-6.16392l0.42786,-0.42777l0.42777,-0.42777l5.64568,5.64568c3.74779,3.7477 5.66195,5.64568 5.69394,5.64568c0.03199,0 1.9683,-1.92003 5.76019,-5.71202l5.71193,-5.71193l0.49411,0.49402l0.49402,0.49411l-6.16383,6.16392" id="path0"/>
 </g>
</svg>