<svg width="32" height="32" xmlns="http://www.w3.org/2000/svg" fill="none">
 <g>
  <title>Layer 1</title>
  <g id="svg_3" stroke="null">
   <circle cx="16" cy="16" r="15.96903" fill="#F0B90B" id="svg_1" stroke="null"/>
   <path fill="#FFFDFA" d="m10.04459,16l-2.44326,2.46023l-2.46023,-2.46023l2.46023,-2.46023l2.44326,2.46023zm5.95545,-5.95545l4.20784,4.20784l2.46023,-2.46023l-4.20784,-4.19087l-2.46023,-2.46023l-2.46023,2.46023l-4.19087,4.19087l2.46023,2.46023l4.19087,-4.20784zm8.39871,3.49522l-2.44326,2.46023l2.46023,2.46023l2.44326,-2.46023l-2.46023,-2.46023zm-8.39871,8.41568l-4.20784,-4.20784l-2.44326,2.46023l4.20784,4.20784l2.44326,2.44326l2.46023,-2.46023l4.20784,-4.20784l-2.46023,-2.44326l-4.20784,4.20784zm0,-3.49522l2.46023,-2.46023l-2.46023,-2.46023l-2.46023,2.46023l2.46023,2.46023z" id="svg_2" stroke="null"/>
  </g>
 </g>

</svg>